<?xml version="1.0" encoding="UTF-8" standalone="no"?>
<!DOCTYPE svg PUBLIC "-//W3C//DTD SVG 1.1//EN"
 "http://www.w3.org/Graphics/SVG/1.1/DTD/svg11.dtd">
<!-- Generated by graphviz version 2.40.1 (20161225.0304)
 -->
<!-- Title: %3 Pages: 1 -->
<svg width="1344pt" height="404pt"
 viewBox="0.00 0.00 1344.38 404.00" xmlns="http://www.w3.org/2000/svg" xmlns:xlink="http://www.w3.org/1999/xlink">
<g id="graph0" class="graph" transform="scale(1 1) rotate(0) translate(4 400)">
<title>%3</title>
<polygon fill="#ffffff" stroke="transparent" points="-4,4 -4,-400 1340.3833,-400 1340.3833,4 -4,4"/>
<!-- [root] aws_instance.myserver -->
<g id="node1" class="node">
<title>[root] aws_instance.myserver</title>
<polygon fill="none" stroke="#000000" points="146.3474,-252 -.1159,-252 -.1159,-216 146.3474,-216 146.3474,-252"/>
<text text-anchor="middle" x="73.1157" y="-229.8" font-family="Times,serif" font-size="14.00" fill="#000000">aws_instance.myserver</text>
</g>
<!-- [root] aws_subnet.subnet2 -->
<g id="node4" class="node">
<title>[root] aws_subnet.subnet2</title>
<polygon fill="none" stroke="#000000" points="234.4923,-180 105.7392,-180 105.7392,-144 234.4923,-144 234.4923,-180"/>
<text text-anchor="middle" x="170.1157" y="-157.8" font-family="Times,serif" font-size="14.00" fill="#000000">aws_subnet.subnet2</text>
</g>
<!-- [root] aws_instance.myserver&#45;&gt;[root] aws_subnet.subnet2 -->
<g id="edge1" class="edge">
<title>[root] aws_instance.myserver&#45;&gt;[root] aws_subnet.subnet2</title>
<path fill="none" stroke="#000000" d="M97.5929,-215.8314C109.6552,-206.8779 124.3697,-195.9558 137.3843,-186.2955"/>
<polygon fill="#000000" stroke="#000000" points="139.7027,-188.9335 145.6464,-180.1628 135.5306,-183.3127 139.7027,-188.9335"/>
</g>
<!-- [root] data.aws_ami.ubuntu -->
<g id="node8" class="node">
<title>[root] data.aws_ami.ubuntu</title>
<polygon fill="none" stroke="#000000" points="152.5884,-108 17.6431,-108 17.6431,-72 152.5884,-72 152.5884,-108"/>
<text text-anchor="middle" x="85.1157" y="-85.8" font-family="Times,serif" font-size="14.00" fill="#000000">data.aws_ami.ubuntu</text>
</g>
<!-- [root] aws_instance.myserver&#45;&gt;[root] data.aws_ami.ubuntu -->
<g id="edge2" class="edge">
<title>[root] aws_instance.myserver&#45;&gt;[root] data.aws_ami.ubuntu</title>
<path fill="none" stroke="#000000" d="M74.6355,-215.7623C76.6823,-191.201 80.3451,-147.2474 82.7529,-118.3541"/>
<polygon fill="#000000" stroke="#000000" points="86.2656,-118.3458 83.6083,-108.0896 79.2898,-117.7644 86.2656,-118.3458"/>
</g>
<!-- [root] aws_security_group.subnetsecurity -->
<g id="node2" class="node">
<title>[root] aws_security_group.subnetsecurity</title>
<polygon fill="none" stroke="#000000" points="377.7369,-252 164.4946,-252 164.4946,-216 377.7369,-216 377.7369,-252"/>
<text text-anchor="middle" x="271.1157" y="-229.8" font-family="Times,serif" font-size="14.00" fill="#000000">aws_security_group.subnetsecurity</text>
</g>
<!-- [root] aws_vpc.vpc_example -->
<g id="node5" class="node">
<title>[root] aws_vpc.vpc_example</title>
<polygon fill="none" stroke="#000000" points="326.7369,-108 183.4946,-108 183.4946,-72 326.7369,-72 326.7369,-108"/>
<text text-anchor="middle" x="255.1157" y="-85.8" font-family="Times,serif" font-size="14.00" fill="#000000">aws_vpc.vpc_example</text>
</g>
<!-- [root] aws_security_group.subnetsecurity&#45;&gt;[root] aws_vpc.vpc_example -->
<g id="edge3" class="edge">
<title>[root] aws_security_group.subnetsecurity&#45;&gt;[root] aws_vpc.vpc_example</title>
<path fill="none" stroke="#000000" d="M269.0893,-215.7623C266.3603,-191.201 261.4765,-147.2474 258.2662,-118.3541"/>
<polygon fill="#000000" stroke="#000000" points="261.7087,-117.6419 257.1257,-108.0896 254.7515,-118.415 261.7087,-117.6419"/>
</g>
<!-- [root] aws_subnet.subnet1 -->
<g id="node3" class="node">
<title>[root] aws_subnet.subnet1</title>
<polygon fill="none" stroke="#000000" points="524.4923,-252 395.7392,-252 395.7392,-216 524.4923,-216 524.4923,-252"/>
<text text-anchor="middle" x="460.1157" y="-229.8" font-family="Times,serif" font-size="14.00" fill="#000000">aws_subnet.subnet1</text>
</g>
<!-- [root] aws_subnet.subnet1&#45;&gt;[root] aws_vpc.vpc_example -->
<g id="edge4" class="edge">
<title>[root] aws_subnet.subnet1&#45;&gt;[root] aws_vpc.vpc_example</title>
<path fill="none" stroke="#000000" d="M434.1523,-215.7623C397.3382,-189.9026 329.921,-142.5461 289.1446,-113.9032"/>
<polygon fill="#000000" stroke="#000000" points="291.0631,-110.9736 280.8683,-108.0896 287.0394,-116.7017 291.0631,-110.9736"/>
</g>
<!-- [root] aws_subnet.subnet2&#45;&gt;[root] aws_vpc.vpc_example -->
<g id="edge5" class="edge">
<title>[root] aws_subnet.subnet2&#45;&gt;[root] aws_vpc.vpc_example</title>
<path fill="none" stroke="#000000" d="M191.5648,-143.8314C201.9335,-135.0485 214.5386,-124.3712 225.7803,-114.8489"/>
<polygon fill="#000000" stroke="#000000" points="228.3052,-117.297 233.6735,-108.1628 223.7808,-111.9556 228.3052,-117.297"/>
</g>
<!-- [root] provider.aws -->
<g id="node13" class="node">
<title>[root] provider.aws</title>
<polygon fill="none" stroke="#000000" points="170.1157,-36 91.5074,-18 170.1157,0 248.7241,-18 170.1157,-36"/>
<text text-anchor="middle" x="170.1157" y="-13.8" font-family="Times,serif" font-size="14.00" fill="#000000">provider.aws</text>
</g>
<!-- [root] aws_vpc.vpc_example&#45;&gt;[root] provider.aws -->
<g id="edge6" class="edge">
<title>[root] aws_vpc.vpc_example&#45;&gt;[root] provider.aws</title>
<path fill="none" stroke="#000000" d="M233.6666,-71.8314C221.8056,-61.7844 207.0181,-49.2585 194.6927,-38.8182"/>
<polygon fill="#000000" stroke="#000000" points="196.897,-36.0984 187.0043,-32.3056 192.3725,-41.4397 196.897,-36.0984"/>
</g>
<!-- [root] azurerm_resource_group.az_network -->
<g id="node6" class="node">
<title>[root] azurerm_resource_group.az_network</title>
<polygon fill="none" stroke="#000000" points="795.3512,-180 570.8802,-180 570.8802,-144 795.3512,-144 795.3512,-180"/>
<text text-anchor="middle" x="683.1157" y="-157.8" font-family="Times,serif" font-size="14.00" fill="#000000">azurerm_resource_group.az_network</text>
</g>
<!-- [root] provider.azurerm -->
<g id="node14" class="node">
<title>[root] provider.azurerm</title>
<polygon fill="none" stroke="#000000" points="683.1157,-108 582.9795,-90 683.1157,-72 783.252,-90 683.1157,-108"/>
<text text-anchor="middle" x="683.1157" y="-85.8" font-family="Times,serif" font-size="14.00" fill="#000000">provider.azurerm</text>
</g>
<!-- [root] azurerm_resource_group.az_network&#45;&gt;[root] provider.azurerm -->
<g id="edge7" class="edge">
<title>[root] azurerm_resource_group.az_network&#45;&gt;[root] provider.azurerm</title>
<path fill="none" stroke="#000000" d="M683.1157,-143.8314C683.1157,-136.131 683.1157,-126.9743 683.1157,-118.4166"/>
<polygon fill="#000000" stroke="#000000" points="686.6158,-118.4132 683.1157,-108.4133 679.6158,-118.4133 686.6158,-118.4132"/>
</g>
<!-- [root] azurerm_virtual_network.blue_virtual_network -->
<g id="node7" class="node">
<title>[root] azurerm_virtual_network.blue_virtual_network</title>
<polygon fill="none" stroke="#000000" points="824.4167,-252 541.8148,-252 541.8148,-216 824.4167,-216 824.4167,-252"/>
<text text-anchor="middle" x="683.1157" y="-229.8" font-family="Times,serif" font-size="14.00" fill="#000000">azurerm_virtual_network.blue_virtual_network</text>
</g>
<!-- [root] azurerm_virtual_network.blue_virtual_network&#45;&gt;[root] azurerm_resource_group.az_network -->
<g id="edge8" class="edge">
<title>[root] azurerm_virtual_network.blue_virtual_network&#45;&gt;[root] azurerm_resource_group.az_network</title>
<path fill="none" stroke="#000000" d="M683.1157,-215.8314C683.1157,-208.131 683.1157,-198.9743 683.1157,-190.4166"/>
<polygon fill="#000000" stroke="#000000" points="686.6158,-190.4132 683.1157,-180.4133 679.6158,-190.4133 686.6158,-190.4132"/>
</g>
<!-- [root] data.aws_ami.ubuntu&#45;&gt;[root] provider.aws -->
<g id="edge9" class="edge">
<title>[root] data.aws_ami.ubuntu&#45;&gt;[root] provider.aws</title>
<path fill="none" stroke="#000000" d="M106.5648,-71.8314C118.4258,-61.7844 133.2134,-49.2585 145.5387,-38.8182"/>
<polygon fill="#000000" stroke="#000000" points="147.8589,-41.4397 153.2272,-32.3056 143.3345,-36.0984 147.8589,-41.4397"/>
</g>
<!-- [root] google_compute_instance.firstserver -->
<g id="node9" class="node">
<title>[root] google_compute_instance.firstserver</title>
<polygon fill="none" stroke="#000000" points="1302.782,-252 1081.4495,-252 1081.4495,-216 1302.782,-216 1302.782,-252"/>
<text text-anchor="middle" x="1192.1157" y="-229.8" font-family="Times,serif" font-size="14.00" fill="#000000">google_compute_instance.firstserver</text>
</g>
<!-- [root] google_compute_subnetwork.rod&#45;subnet -->
<g id="node11" class="node">
<title>[root] google_compute_subnetwork.rod&#45;subnet</title>
<polygon fill="none" stroke="#000000" points="1307.6265,-180 1062.605,-180 1062.605,-144 1307.6265,-144 1307.6265,-180"/>
<text text-anchor="middle" x="1185.1157" y="-157.8" font-family="Times,serif" font-size="14.00" fill="#000000">google_compute_subnetwork.rod&#45;subnet</text>
</g>
<!-- [root] google_compute_instance.firstserver&#45;&gt;[root] google_compute_subnetwork.rod&#45;subnet -->
<g id="edge10" class="edge">
<title>[root] google_compute_instance.firstserver&#45;&gt;[root] google_compute_subnetwork.rod&#45;subnet</title>
<path fill="none" stroke="#000000" d="M1190.3493,-215.8314C1189.6007,-208.131 1188.7105,-198.9743 1187.8785,-190.4166"/>
<polygon fill="#000000" stroke="#000000" points="1191.3572,-190.0276 1186.9059,-180.4133 1184.3901,-190.7051 1191.3572,-190.0276"/>
</g>
<!-- [root] google_compute_network.our_development_network -->
<g id="node10" class="node">
<title>[root] google_compute_network.our_development_network</title>
<polygon fill="none" stroke="#000000" points="1336.1512,-108 1020.0802,-108 1020.0802,-72 1336.1512,-72 1336.1512,-108"/>
<text text-anchor="middle" x="1178.1157" y="-85.8" font-family="Times,serif" font-size="14.00" fill="#000000">google_compute_network.our_development_network</text>
</g>
<!-- [root] provider.google -->
<g id="node15" class="node">
<title>[root] provider.google</title>
<polygon fill="none" stroke="#000000" points="1097.1157,-36 1003.8293,-18 1097.1157,0 1190.4021,-18 1097.1157,-36"/>
<text text-anchor="middle" x="1097.1157" y="-13.8" font-family="Times,serif" font-size="14.00" fill="#000000">provider.google</text>
</g>
<!-- [root] google_compute_network.our_development_network&#45;&gt;[root] provider.google -->
<g id="edge11" class="edge">
<title>[root] google_compute_network.our_development_network&#45;&gt;[root] provider.google</title>
<path fill="none" stroke="#000000" d="M1157.676,-71.8314C1146.7093,-62.0832 1133.1171,-50.0013 1121.5901,-39.755"/>
<polygon fill="#000000" stroke="#000000" points="1123.7968,-37.0336 1113.9974,-33.0059 1119.1462,-42.2655 1123.7968,-37.0336"/>
</g>
<!-- [root] google_compute_subnetwork.rod&#45;subnet&#45;&gt;[root] google_compute_network.our_development_network -->
<g id="edge12" class="edge">
<title>[root] google_compute_subnetwork.rod&#45;subnet&#45;&gt;[root] google_compute_network.our_development_network</title>
<path fill="none" stroke="#000000" d="M1183.3493,-143.8314C1182.6007,-136.131 1181.7105,-126.9743 1180.8785,-118.4166"/>
<polygon fill="#000000" stroke="#000000" points="1184.3572,-118.0276 1179.9059,-108.4133 1177.3901,-118.7051 1184.3572,-118.0276"/>
</g>
<!-- [root] google_container_cluster.rod&#45;cluster -->
<g id="node12" class="node">
<title>[root] google_container_cluster.rod&#45;cluster</title>
<polygon fill="none" stroke="#000000" points="1063.4956,-252 842.7358,-252 842.7358,-216 1063.4956,-216 1063.4956,-252"/>
<text text-anchor="middle" x="953.1157" y="-229.8" font-family="Times,serif" font-size="14.00" fill="#000000">google_container_cluster.rod&#45;cluster</text>
</g>
<!-- [root] google_container_cluster.rod&#45;cluster&#45;&gt;[root] provider.google -->
<g id="edge13" class="edge">
<title>[root] google_container_cluster.rod&#45;cluster&#45;&gt;[root] provider.google</title>
<path fill="none" stroke="#000000" d="M955.6449,-215.8175C960.9113,-183.6924 975.654,-116.1263 1011.1157,-72 1023.6953,-56.3468 1042.1064,-43.9325 1058.6692,-34.9738"/>
<polygon fill="#000000" stroke="#000000" points="1060.347,-38.0466 1067.6318,-30.3536 1057.1396,-31.8247 1060.347,-38.0466"/>
</g>
<!-- [root] var.client_id -->
<g id="node16" class="node">
<title>[root] var.client_id</title>
<polygon fill="none" stroke="#000000" points="772.7133,-36 693.5181,-36 693.5181,0 778.7133,0 778.7133,-30 772.7133,-36"/>
<polyline fill="none" stroke="#000000" points="772.7133,-36 772.7133,-30 "/>
<polyline fill="none" stroke="#000000" points="778.7133,-30 772.7133,-30 "/>
<text text-anchor="middle" x="736.1157" y="-13.8" font-family="Times,serif" font-size="14.00" fill="#000000">var.client_id</text>
</g>
<!-- [root] provider.azurerm&#45;&gt;[root] var.client_id -->
<g id="edge24" class="edge">
<title>[root] provider.azurerm&#45;&gt;[root] var.client_id</title>
<path fill="none" stroke="#000000" d="M694.8781,-74.0209C701.2467,-65.3693 709.2803,-54.4557 716.5613,-44.5645"/>
<polygon fill="#000000" stroke="#000000" points="719.5957,-46.3463 722.7052,-36.2181 713.9583,-42.1966 719.5957,-46.3463"/>
</g>
<!-- [root] var.client_secret -->
<g id="node17" class="node">
<title>[root] var.client_secret</title>
<polygon fill="none" stroke="#000000" points="897.9649,-36 796.2665,-36 796.2665,0 903.9649,0 903.9649,-30 897.9649,-36"/>
<polyline fill="none" stroke="#000000" points="897.9649,-36 897.9649,-30 "/>
<polyline fill="none" stroke="#000000" points="903.9649,-30 897.9649,-30 "/>
<text text-anchor="middle" x="850.1157" y="-13.8" font-family="Times,serif" font-size="14.00" fill="#000000">var.client_secret</text>
</g>
<!-- [root] provider.azurerm&#45;&gt;[root] var.client_secret -->
<g id="edge25" class="edge">
<title>[root] provider.azurerm&#45;&gt;[root] var.client_secret</title>
<path fill="none" stroke="#000000" d="M712.5876,-77.2936C736.3956,-67.029 770.4733,-52.3369 798.7496,-40.1459"/>
<polygon fill="#000000" stroke="#000000" points="800.2961,-43.2906 808.0933,-36.1174 797.5247,-36.8626 800.2961,-43.2906"/>
</g>
<!-- [root] var.subscription_id -->
<g id="node18" class="node">
<title>[root] var.subscription_id</title>
<polygon fill="none" stroke="#000000" points="562.5571,-36 445.6743,-36 445.6743,0 568.5571,0 568.5571,-30 562.5571,-36"/>
<polyline fill="none" stroke="#000000" points="562.5571,-36 562.5571,-30 "/>
<polyline fill="none" stroke="#000000" points="568.5571,-30 562.5571,-30 "/>
<text text-anchor="middle" x="507.1157" y="-13.8" font-family="Times,serif" font-size="14.00" fill="#000000">var.subscription_id</text>
</g>
<!-- [root] provider.azurerm&#45;&gt;[root] var.subscription_id -->
<g id="edge26" class="edge">
<title>[root] provider.azurerm&#45;&gt;[root] var.subscription_id</title>
<path fill="none" stroke="#000000" d="M652.4589,-77.4586C627.2201,-67.1336 590.8351,-52.2488 560.7844,-39.9554"/>
<polygon fill="#000000" stroke="#000000" points="561.8531,-36.6111 551.2724,-36.0641 559.2026,-43.0899 561.8531,-36.6111"/>
</g>
<!-- [root] var.tenant_id -->
<g id="node19" class="node">
<title>[root] var.tenant_id</title>
<polygon fill="none" stroke="#000000" points="669.3232,-36 586.9082,-36 586.9082,0 675.3232,0 675.3232,-30 669.3232,-36"/>
<polyline fill="none" stroke="#000000" points="669.3232,-36 669.3232,-30 "/>
<polyline fill="none" stroke="#000000" points="675.3232,-30 669.3232,-30 "/>
<text text-anchor="middle" x="631.1157" y="-13.8" font-family="Times,serif" font-size="14.00" fill="#000000">var.tenant_id</text>
</g>
<!-- [root] provider.azurerm&#45;&gt;[root] var.tenant_id -->
<g id="edge27" class="edge">
<title>[root] provider.azurerm&#45;&gt;[root] var.tenant_id</title>
<path fill="none" stroke="#000000" d="M671.5752,-74.0209C665.3269,-65.3693 657.4448,-54.4557 650.3012,-44.5645"/>
<polygon fill="#000000" stroke="#000000" points="652.9655,-42.2756 644.2732,-36.2181 647.2908,-46.3741 652.9655,-42.2756"/>
</g>
<!-- [root] meta.count&#45;boundary (EachMode fixup) -->
<g id="node20" class="node">
<title>[root] meta.count&#45;boundary (EachMode fixup)</title>
<ellipse fill="none" stroke="#000000" cx="514.1157" cy="-306" rx="174.7874" ry="18"/>
<text text-anchor="middle" x="514.1157" y="-301.8" font-family="Times,serif" font-size="14.00" fill="#000000">[root] meta.count&#45;boundary (EachMode fixup)</text>
</g>
<!-- [root] meta.count&#45;boundary (EachMode fixup)&#45;&gt;[root] aws_instance.myserver -->
<g id="edge14" class="edge">
<title>[root] meta.count&#45;boundary (EachMode fixup)&#45;&gt;[root] aws_instance.myserver</title>
<path fill="none" stroke="#000000" d="M406.5901,-291.7384C337.6877,-282.1469 246.1468,-268.568 156.4612,-252.1909"/>
<polygon fill="#000000" stroke="#000000" points="156.8523,-248.7042 146.3841,-250.3374 155.586,-255.5887 156.8523,-248.7042"/>
</g>
<!-- [root] meta.count&#45;boundary (EachMode fixup)&#45;&gt;[root] aws_security_group.subnetsecurity -->
<g id="edge15" class="edge">
<title>[root] meta.count&#45;boundary (EachMode fixup)&#45;&gt;[root] aws_security_group.subnetsecurity</title>
<path fill="none" stroke="#000000" d="M456.5281,-288.937C422.2754,-278.7881 378.5489,-265.8321 342.163,-255.0511"/>
<polygon fill="#000000" stroke="#000000" points="342.6913,-251.5572 332.109,-252.0721 340.7026,-258.2688 342.6913,-251.5572"/>
</g>
<!-- [root] meta.count&#45;boundary (EachMode fixup)&#45;&gt;[root] aws_subnet.subnet1 -->
<g id="edge16" class="edge">
<title>[root] meta.count&#45;boundary (EachMode fixup)&#45;&gt;[root] aws_subnet.subnet1</title>
<path fill="none" stroke="#000000" d="M500.4892,-287.8314C494.2697,-279.5386 486.7835,-269.557 479.9557,-260.4533"/>
<polygon fill="#000000" stroke="#000000" points="482.7257,-258.3133 473.9257,-252.4133 477.1257,-262.5133 482.7257,-258.3133"/>
</g>
<!-- [root] meta.count&#45;boundary (EachMode fixup)&#45;&gt;[root] azurerm_virtual_network.blue_virtual_network -->
<g id="edge17" class="edge">
<title>[root] meta.count&#45;boundary (EachMode fixup)&#45;&gt;[root] azurerm_virtual_network.blue_virtual_network</title>
<path fill="none" stroke="#000000" d="M555.4578,-288.3868C578.3187,-278.6472 606.9406,-266.4533 631.286,-256.0813"/>
<polygon fill="#000000" stroke="#000000" points="632.9034,-259.1967 640.7314,-252.0572 630.1597,-252.7568 632.9034,-259.1967"/>
</g>
<!-- [root] meta.count&#45;boundary (EachMode fixup)&#45;&gt;[root] google_compute_instance.firstserver -->
<g id="edge18" class="edge">
<title>[root] meta.count&#45;boundary (EachMode fixup)&#45;&gt;[root] google_compute_instance.firstserver</title>
<path fill="none" stroke="#000000" d="M640.8082,-293.5801C660.0086,-291.7054 679.5865,-289.7981 698.1157,-288 861.0792,-272.1858 904.6852,-272.3788 1071.2206,-252.0754"/>
<polygon fill="#000000" stroke="#000000" points="1071.8213,-255.5281 1081.3212,-250.8374 1070.9696,-248.5801 1071.8213,-255.5281"/>
</g>
<!-- [root] meta.count&#45;boundary (EachMode fixup)&#45;&gt;[root] google_container_cluster.rod&#45;cluster -->
<g id="edge19" class="edge">
<title>[root] meta.count&#45;boundary (EachMode fixup)&#45;&gt;[root] google_container_cluster.rod&#45;cluster</title>
<path fill="none" stroke="#000000" d="M607.2163,-290.7307C673.081,-279.9282 761.9793,-265.3481 833.1591,-253.674"/>
<polygon fill="#000000" stroke="#000000" points="833.7794,-257.1191 843.081,-252.0467 832.6464,-250.2114 833.7794,-257.1191"/>
</g>
<!-- [root] provider.aws (close) -->
<g id="node21" class="node">
<title>[root] provider.aws (close)</title>
<ellipse fill="none" stroke="#000000" cx="217.1157" cy="-306" rx="104.3276" ry="18"/>
<text text-anchor="middle" x="217.1157" y="-301.8" font-family="Times,serif" font-size="14.00" fill="#000000">[root] provider.aws (close)</text>
</g>
<!-- [root] provider.aws (close)&#45;&gt;[root] aws_instance.myserver -->
<g id="edge20" class="edge">
<title>[root] provider.aws (close)&#45;&gt;[root] aws_instance.myserver</title>
<path fill="none" stroke="#000000" d="M182.9897,-288.937C163.646,-279.2651 139.2036,-267.0439 118.2864,-256.5854"/>
<polygon fill="#000000" stroke="#000000" points="119.7694,-253.4138 109.2599,-252.0721 116.6389,-259.6748 119.7694,-253.4138"/>
</g>
<!-- [root] provider.aws (close)&#45;&gt;[root] aws_security_group.subnetsecurity -->
<g id="edge21" class="edge">
<title>[root] provider.aws (close)&#45;&gt;[root] aws_security_group.subnetsecurity</title>
<path fill="none" stroke="#000000" d="M230.7422,-287.8314C236.9618,-279.5386 244.448,-269.557 251.2757,-260.4533"/>
<polygon fill="#000000" stroke="#000000" points="254.1057,-262.5133 257.3058,-252.4133 248.5057,-258.3133 254.1057,-262.5133"/>
</g>
<!-- [root] provider.aws (close)&#45;&gt;[root] aws_subnet.subnet1 -->
<g id="edge22" class="edge">
<title>[root] provider.aws (close)&#45;&gt;[root] aws_subnet.subnet1</title>
<path fill="none" stroke="#000000" d="M269.8431,-290.3771C304.8242,-280.0123 351.1459,-266.2874 389.3259,-254.9748"/>
<polygon fill="#000000" stroke="#000000" points="390.7588,-258.2007 399.3525,-252.0039 388.7702,-251.4891 390.7588,-258.2007"/>
</g>
<!-- [root] provider.azurerm (close) -->
<g id="node22" class="node">
<title>[root] provider.azurerm (close)</title>
<ellipse fill="none" stroke="#000000" cx="826.1157" cy="-306" rx="119.2527" ry="18"/>
<text text-anchor="middle" x="826.1157" y="-301.8" font-family="Times,serif" font-size="14.00" fill="#000000">[root] provider.azurerm (close)</text>
</g>
<!-- [root] provider.azurerm (close)&#45;&gt;[root] azurerm_virtual_network.blue_virtual_network -->
<g id="edge23" class="edge">
<title>[root] provider.azurerm (close)&#45;&gt;[root] azurerm_virtual_network.blue_virtual_network</title>
<path fill="none" stroke="#000000" d="M791.8637,-288.7542C772.8038,-279.1576 748.8446,-267.0943 728.2694,-256.7347"/>
<polygon fill="#000000" stroke="#000000" points="729.5896,-253.4809 719.0838,-252.1098 726.4416,-259.7331 729.5896,-253.4809"/>
</g>
<!-- [root] provider.google (close) -->
<g id="node23" class="node">
<title>[root] provider.google (close)</title>
<ellipse fill="none" stroke="#000000" cx="1078.1157" cy="-306" rx="114.4592" ry="18"/>
<text text-anchor="middle" x="1078.1157" y="-301.8" font-family="Times,serif" font-size="14.00" fill="#000000">[root] provider.google (close)</text>
</g>
<!-- [root] provider.google (close)&#45;&gt;[root] google_compute_instance.firstserver -->
<g id="edge28" class="edge">
<title>[root] provider.google (close)&#45;&gt;[root] google_compute_instance.firstserver</title>
<path fill="none" stroke="#000000" d="M1106.0033,-288.3868C1120.6863,-279.1133 1138.8924,-267.6147 1154.7769,-257.5824"/>
<polygon fill="#000000" stroke="#000000" points="1156.7398,-260.4824 1163.3257,-252.1832 1153.0018,-254.5639 1156.7398,-260.4824"/>
</g>
<!-- [root] provider.google (close)&#45;&gt;[root] google_container_cluster.rod&#45;cluster -->
<g id="edge29" class="edge">
<title>[root] provider.google (close)&#45;&gt;[root] google_container_cluster.rod&#45;cluster</title>
<path fill="none" stroke="#000000" d="M1047.8567,-288.5708C1031.49,-279.1436 1011.0614,-267.3767 993.3684,-257.1855"/>
<polygon fill="#000000" stroke="#000000" points="994.8137,-253.979 984.4015,-252.0206 991.3199,-260.0447 994.8137,-253.979"/>
</g>
<!-- [root] root -->
<g id="node24" class="node">
<title>[root] root</title>
<ellipse fill="none" stroke="#000000" cx="670.1157" cy="-378" rx="46.8976" ry="18"/>
<text text-anchor="middle" x="670.1157" y="-373.8" font-family="Times,serif" font-size="14.00" fill="#000000">[root] root</text>
</g>
<!-- [root] root&#45;&gt;[root] meta.count&#45;boundary (EachMode fixup) -->
<g id="edge30" class="edge">
<title>[root] root&#45;&gt;[root] meta.count&#45;boundary (EachMode fixup)</title>
<path fill="none" stroke="#000000" d="M640.0374,-364.1177C617.8003,-353.8544 587.0792,-339.6754 561.5484,-327.892"/>
<polygon fill="#000000" stroke="#000000" points="562.9488,-324.6836 552.4025,-323.6708 560.0153,-331.0393 562.9488,-324.6836"/>
</g>
<!-- [root] root&#45;&gt;[root] provider.aws (close) -->
<g id="edge31" class="edge">
<title>[root] root&#45;&gt;[root] provider.aws (close)</title>
<path fill="none" stroke="#000000" d="M626.9094,-371.1443C562.3316,-360.896 436.8046,-340.9697 330.1157,-324 321.5632,-322.6396 312.6466,-321.2206 303.7381,-319.8024"/>
<polygon fill="#000000" stroke="#000000" points="304.1292,-316.3207 293.7033,-318.2046 303.0285,-323.2336 304.1292,-316.3207"/>
</g>
<!-- [root] root&#45;&gt;[root] provider.azurerm (close) -->
<g id="edge32" class="edge">
<title>[root] root&#45;&gt;[root] provider.azurerm (close)</title>
<path fill="none" stroke="#000000" d="M700.1941,-364.1177C722.7465,-353.7089 754.0255,-339.2724 779.7663,-327.392"/>
<polygon fill="#000000" stroke="#000000" points="781.3599,-330.5114 788.9728,-323.1429 778.4265,-324.1557 781.3599,-330.5114"/>
</g>
<!-- [root] root&#45;&gt;[root] provider.google (close) -->
<g id="edge33" class="edge">
<title>[root] root&#45;&gt;[root] provider.google (close)</title>
<path fill="none" stroke="#000000" d="M712.6243,-370.4985C778.3935,-358.8922 906.1524,-336.3465 991.8189,-321.2289"/>
<polygon fill="#000000" stroke="#000000" points="992.5505,-324.6539 1001.7901,-319.4692 991.334,-317.7604 992.5505,-324.6539"/>
</g>
</g>
</svg>
